<svg width="64" height="64" viewBox="0 0 64 64" fill="none" xmlns="http://www.w3.org/2000/svg">
<rect x="1.44444" y="1.44444" width="61.1111" height="61.1111" rx="5" stroke="black" stroke-opacity="0.1" stroke-width="1.11111"/>
<rect x="2" y="2" width="60" height="60" rx="4.44444" fill="white"/>
<path d="M17.7891 46.2316H15.0144L12.5221 42.5177L12.074 43.1438V46.2316H9.77808V37.091H12.074V41.1487L14.996 37.091H17.6541L14.3944 41.3329L17.7891 46.2316Z" fill="#0060AF"/>
<path d="M20.2958 46.2316H18.1472V36.6797H20.2958V46.2316Z" fill="#0060AF"/>
<path d="M23.8276 46.2316H21.679V39.3378H23.8276V46.2316ZM23.889 38.3556H21.6176V36.6797H23.889V38.3556Z" fill="#0060AF"/>
<path d="M32.1108 46.2316H29.5571L27.6909 43.2298L27.3594 43.6779V46.2316H25.2109V36.6797H27.3594V42.0327L29.3975 39.3378H31.9328L29.5202 42.309L32.1108 46.2316Z" fill="#0060AF"/>
<path d="M39.6819 39.9762C39.6819 40.4019 39.6144 40.807 39.4793 41.1917C39.3443 41.5764 39.1499 41.8977 38.8961 42.1555C38.7406 42.3151 38.5687 42.4624 38.3805 42.5975C38.1963 42.7325 37.9917 42.8471 37.7666 42.9413C37.5415 43.0354 37.296 43.109 37.03 43.1623C36.768 43.2155 36.4734 43.2421 36.146 43.2421H34.9428V46.2316H32.6469V37.091H36.1951C36.723 37.091 37.1773 37.1402 37.5579 37.2384C37.9426 37.3325 38.2905 37.4839 38.6015 37.6926C38.9453 37.9218 39.2113 38.2288 39.3995 38.6135C39.5878 38.9941 39.6819 39.4483 39.6819 39.9762ZM37.3246 40.0315C37.3246 39.7737 37.2632 39.5527 37.1405 39.3685C37.0177 39.1803 36.8704 39.0513 36.6985 38.9818C36.4816 38.8876 36.2729 38.8344 36.0723 38.8222C35.8759 38.8058 35.6078 38.7976 35.2682 38.7976H34.9428V41.5355H35.1024C35.3193 41.5355 35.5239 41.5334 35.7163 41.5293C35.9086 41.5253 36.0764 41.5109 36.2197 41.4864C36.3424 41.4659 36.4713 41.427 36.6064 41.3697C36.7455 41.3084 36.8519 41.2408 36.9256 41.1672C37.0811 41.0157 37.1855 40.8582 37.2387 40.6945C37.296 40.5308 37.3246 40.3098 37.3246 40.0315Z" fill="#0060AF"/>
<path d="M44.3248 44.433V42.9965C43.9606 43.0333 43.6659 43.0661 43.4409 43.0947C43.2158 43.1193 42.9948 43.1704 42.7779 43.2482C42.5896 43.3137 42.4423 43.4139 42.3359 43.549C42.2336 43.68 42.1824 43.8559 42.1824 44.0769C42.1824 44.4002 42.2684 44.6233 42.4402 44.746C42.6162 44.8647 42.874 44.9241 43.2137 44.9241C43.402 44.9241 43.5943 44.8811 43.7908 44.7952C43.9872 44.7092 44.1652 44.5885 44.3248 44.433ZM44.3248 45.5011C44.1775 45.6239 44.0445 45.7344 43.9258 45.8326C43.8112 45.9308 43.6557 46.029 43.4593 46.1273C43.2669 46.2214 43.0787 46.293 42.8945 46.3421C42.7144 46.3912 42.4607 46.4158 42.1333 46.4158C41.5235 46.4158 41.0161 46.2112 40.6109 45.8019C40.2098 45.3927 40.0093 44.877 40.0093 44.2549C40.0093 43.7434 40.1116 43.33 40.3162 43.0149C40.5209 42.6998 40.8155 42.4502 41.2002 42.266C41.589 42.0777 42.0535 41.9468 42.5937 41.8731C43.1339 41.7995 43.715 41.7422 44.3371 41.7012V41.6644C44.3371 41.2838 44.1959 41.0219 43.9135 40.8786C43.6352 40.7313 43.2158 40.6576 42.6551 40.6576C42.4014 40.6576 42.1047 40.7047 41.765 40.7988C41.4253 40.8889 41.0938 41.0055 40.7705 41.1487H40.5863V39.4852C40.7991 39.4238 41.1429 39.3521 41.6176 39.2703C42.0924 39.1844 42.5712 39.1414 43.0541 39.1414C44.2409 39.1414 45.1045 39.3399 45.6447 39.7368C46.189 40.1297 46.4611 40.7313 46.4611 41.5416V46.2316H44.3248V45.5011Z" fill="#0060AF"/>
<path d="M54.2225 39.3378L50.7419 48.7608H48.4337L49.4773 46.0659L46.9481 39.3378H49.2072L50.6559 43.6595L52.0126 39.3378H54.2225Z" fill="#0060AF"/>
<path d="M41.0564 16.5339L38.6428 20.9147C37.7317 20.175 36.6193 19.6305 35.1999 19.6305C31.841 19.6305 30.4767 22.1343 30.4767 23.8979C30.4767 25.2071 31.3339 27.1386 34.3226 27.1386C35.577 27.1386 37.3605 26.2659 37.8737 25.8689L35.4865 30.9514C34.3487 31.1784 33.9749 31.3191 33.0117 31.349C27.6625 31.5086 25.5009 28.2225 25.5024 24.8647C25.506 20.4258 29.4526 15.0274 35.9951 15.0274C36.396 15.0274 36.8863 15.166 37.3056 15.3196L37.7293 14.7778" fill="#0060AF"/>
<path d="M51.0154 14.9152L51.6989 30.8378H46.6123L46.6093 28.107H43.1409L41.9993 30.8378H36.4829L42.2502 19.4677L40.9497 19.4592L43.4207 14.9152H51.0154ZM46.5764 19.7862L44.6153 24.4175H46.6355" fill="#0060AF"/>
<path d="M22.2911 14.9152C24.81 14.9293 26.2335 16.2967 26.2335 18.2718C26.2335 20.0926 24.7323 21.7044 23.0843 22.5379C24.7809 23.1616 24.9277 24.6926 24.9277 25.7758C24.9277 28.3926 22.3018 30.8378 18.8886 30.8378H11.4448L14.3485 19.6261L13.1558 19.6192L15.5939 14.9152C15.5939 14.9152 20.2427 14.9011 22.2911 14.9152ZM19.8198 21.3709C20.3408 21.3709 21.2608 21.239 21.4908 20.2306C21.7429 19.1359 20.8795 19.1065 20.4653 19.1065L18.9855 19.1L18.4694 21.3709L19.8198 21.3709ZM17.7275 24.1846L17.0461 26.8014H18.7886C19.4742 26.8014 20.4085 26.4612 20.6375 25.6096C20.8636 24.7555 20.2105 24.1846 19.5273 24.1846" fill="#0060AF"/>
</svg>
