<svg width="207" height="25" viewBox="0 0 207 25" fill="none" xmlns="http://www.w3.org/2000/svg">
<path d="M10.18 19.54C11.2533 19.54 12.07 19.4117 12.63 19.155C13.19 18.8983 13.54 18.5717 13.68 18.175C13.8433 17.755 13.8317 17.3117 13.645 16.845C13.4583 16.355 13.155 15.8883 12.735 15.445C12.1517 14.8617 11.5683 14.29 10.985 13.73C10.425 13.17 9.865 12.5983 9.305 12.015C9.77167 11.6883 10.2267 11.3617 10.67 11.035C11.1133 10.7083 11.5567 10.3817 12 10.055C12.63 9.61167 13.085 9.15667 13.365 8.69C13.6683 8.2 13.7617 7.75667 13.645 7.36C13.5283 6.94 13.19 6.60167 12.63 6.345C12.07 6.08833 11.2533 5.96 10.18 5.96H8.36V19.54H10.145H10.18ZM20.47 6.52C20.4933 6.84667 20.4817 7.19667 20.435 7.57C20.3883 7.92 20.26 8.305 20.05 8.725C19.84 9.12167 19.525 9.565 19.105 10.055C18.7083 10.5217 18.16 11.035 17.46 11.595C18.5333 12.4583 19.3967 13.3917 20.05 14.395C20.7033 15.375 21.1233 16.3667 21.31 17.37C21.52 18.35 21.4967 19.3067 21.24 20.24C20.9833 21.15 20.4933 21.9667 19.77 22.69C19.0467 23.39 18.09 23.95 16.9 24.37C15.71 24.79 14.2867 25 12.63 25H8.36H3.6C2.85333 25 2.21167 24.7317 1.675 24.195C1.13833 23.6583 0.87 23.0167 0.87 22.27V0.57H9.62C10.53 0.57 11.37 0.581666 12.14 0.604999C12.9333 0.628332 13.7033 0.698332 14.45 0.814998C15.22 0.931665 15.9667 1.095 16.69 1.305C17.4367 1.515 18.09 1.85333 18.65 2.32C19.7467 3.27667 20.3533 4.67667 20.47 6.52ZM42.4147 0.57L35.5547 11.945V25H31.0397H30.7947C30.0481 25 29.4064 24.7433 28.8697 24.23C28.3564 23.6933 28.0997 23.0517 28.0997 22.305V11.945L21.2397 0.57H29.1847L31.8097 5.61L34.4347 0.57H42.4147ZM65.7783 3.965C65.8017 4.665 65.685 5.20167 65.4283 5.575C65.1717 5.925 64.88 6.18167 64.5533 6.345C64.1333 6.53167 63.7017 6.625 63.2583 6.625H59.4783V25H51.9883V6.625H45.6183V6.45L45.6883 0.57H51.9883H59.4783H65.8133L65.7783 3.965ZM88.5297 19.05L86.9197 25H83.8397H72.6047C71.858 25 71.2164 24.7317 70.6797 24.195C70.143 23.6583 69.8747 23.0167 69.8747 22.27V0.57H77.3647H80.7597H86.9197V5.96H79.4647H79.4297H77.3647V9.6H84.8547V14.36H77.3647V19.05H88.5297ZM109.582 0.57L107.517 6.275H106.572H105.872H100.587H100.237C98.9308 6.275 98.2775 6.84667 98.2775 7.99C98.2775 9.13333 98.9308 9.705 100.237 9.705H102.442C107.506 9.705 110.037 12.2717 110.037 17.405C110.037 19.995 109.326 21.9083 107.902 23.145C106.502 24.3817 104.379 25 101.532 25H91.3475L92.9575 18.875H100.552C101.252 18.875 101.777 18.7817 102.127 18.595C102.501 18.385 102.687 17.9767 102.687 17.37C102.687 16.74 102.512 16.3083 102.162 16.075C101.812 15.8183 101.287 15.6783 100.587 15.655H100.552C97.5425 15.655 95.3258 15.0367 93.9025 13.8C92.4791 12.5633 91.7675 10.6733 91.7675 8.13C91.7675 3.09 94.7541 0.57 100.727 0.57H109.582ZM133.01 3.965C133.033 4.665 132.916 5.20167 132.66 5.575C132.403 5.925 132.111 6.18167 131.785 6.345C131.365 6.53167 130.933 6.625 130.49 6.625H126.71V25H119.22V6.625H112.85V6.45L112.92 0.57H119.22H126.71H133.045L133.01 3.965ZM151.53 12.68C151.53 10.6267 151.11 9.075 150.27 8.025C149.43 6.975 148.38 6.40333 147.12 6.31C146.49 6.35667 145.907 6.53167 145.37 6.835C144.834 7.115 144.355 7.52333 143.935 8.06C143.539 8.57333 143.224 9.22667 142.99 10.02C142.757 10.79 142.64 11.6767 142.64 12.68V12.715C142.64 13.7417 142.757 14.64 142.99 15.41C143.224 16.18 143.539 16.8333 143.935 17.37C144.355 17.8833 144.834 18.2917 145.37 18.595C145.907 18.875 146.49 19.0383 147.12 19.085C148.38 18.9917 149.43 18.42 150.27 17.37C151.11 16.32 151.53 14.7683 151.53 12.715V12.68ZM147.085 0.57C150.725 0.593333 153.56 1.585 155.59 3.545C157.62 5.505 158.635 8.56167 158.635 12.715C158.635 16.845 157.62 19.925 155.59 21.955C153.56 23.985 150.725 25 147.085 25C145.265 25 143.62 24.755 142.15 24.265C140.704 23.7517 139.479 22.9817 138.475 21.955C137.472 20.9283 136.702 19.6567 136.165 18.14C135.629 16.6 135.36 14.7917 135.36 12.715C135.36 10.6617 135.629 8.87667 136.165 7.36C136.702 5.82 137.472 4.54833 138.475 3.545C139.479 2.54167 140.704 1.795 142.15 1.305C143.62 0.814999 145.265 0.57 147.085 0.57ZM184.891 25H176.841L171.136 13.31C172.513 12.05 173.563 10.9767 174.286 10.09C175.009 9.20333 175.453 8.46833 175.616 7.885C175.779 7.30167 175.674 6.85833 175.301 6.555C174.951 6.22833 174.391 6.00667 173.621 5.89C173.061 5.82 172.513 5.79667 171.976 5.82C171.439 5.82 170.903 5.82 170.366 5.82V19.435V25H162.911V3.475C162.864 2.75167 162.934 2.20333 163.121 1.83C163.308 1.45667 163.553 1.18833 163.856 1.025C164.159 0.838332 164.474 0.733333 164.801 0.71C165.151 0.663332 165.454 0.628332 165.711 0.604999L170.366 0.57H172.746C173.656 0.57 174.496 0.581666 175.266 0.604999C176.059 0.604999 176.829 0.663332 177.576 0.779999C178.346 0.896665 179.093 1.08333 179.816 1.34C180.563 1.57333 181.216 1.92333 181.776 2.39C182.313 2.85667 182.733 3.41666 183.036 4.07C183.363 4.7 183.549 5.44667 183.596 6.31C183.619 6.73 183.584 7.185 183.491 7.675C183.421 8.14167 183.223 8.67833 182.896 9.285C182.593 9.86833 182.138 10.5333 181.531 11.28C180.948 12.0267 180.166 12.8667 179.186 13.8L184.891 25ZM206.518 19.05L204.908 25H201.828H190.593C189.846 25 189.205 24.7317 188.668 24.195C188.131 23.6583 187.863 23.0167 187.863 22.27V0.57H195.353H198.748H204.908V5.96H197.453H197.418H195.353V9.6H202.843V14.36H195.353V19.05H206.518Z" fill="#02577A"/>
</svg>
