<svg width="64" height="64" viewBox="0 0 64 64" fill="none" xmlns="http://www.w3.org/2000/svg">
<g clip-path="url(#clip0_110_713)">
<rect x="2" y="2" width="60" height="60" rx="4.44444" fill="white"/>
<g clip-path="url(#clip1_110_713)">
<path fill-rule="evenodd" clip-rule="evenodd" d="M27.3462 35.5271C28.1908 35.5876 29.1751 34.9314 29.5218 34.5567C30.7272 33.2525 30.7563 31.3665 29.5428 30.0006C29.0914 29.4922 28.0303 28.9302 27.359 29.0093H24.9285V35.5189L27.352 35.5271H27.3462ZM26.299 34.1169V30.4113C26.6795 30.3863 27.0611 30.3863 27.4416 30.4113C27.7409 30.446 28.0264 30.5565 28.2711 30.7324C29.6673 31.6865 29.0855 33.961 27.4183 34.1135C27.0457 34.1396 26.6718 34.1408 26.299 34.1169Z" fill="#008CEB"/>
<path fill-rule="evenodd" clip-rule="evenodd" d="M48.6831 35.5387H50.0688V34.1356H52.8181L52.8262 35.5317H54.2119V33.2188C54.2119 32.5207 54.2701 31.6504 54.0956 31.0186C53.9371 30.4403 53.5937 29.9296 53.1179 29.5646C52.6421 29.1996 52.06 29.0002 51.4603 28.9969C50.8606 28.9936 50.2763 29.1866 49.7965 29.5464C49.3168 29.9061 48.9678 30.413 48.803 30.9895C48.6168 31.6132 48.6796 32.5079 48.6796 33.2001C48.6796 33.982 48.6715 34.7685 48.6796 35.5503L48.6831 35.5387ZM50.07 32.7243C50.0618 32.1425 50.0002 31.5201 50.2736 31.0722C50.3936 30.8659 50.5661 30.6952 50.7735 30.5772C50.981 30.4593 51.2159 30.3985 51.4545 30.4008C51.6919 30.4026 51.9247 30.4659 52.1303 30.5846C52.3359 30.7033 52.5071 30.8733 52.6273 31.078C52.8972 31.5434 52.8332 32.1251 52.8262 32.7254L50.07 32.7243Z" fill="#008CEB"/>
<path fill-rule="evenodd" clip-rule="evenodd" d="M32.8367 35.5375H34.2177C34.2177 35.2443 34.1805 34.3473 34.2305 34.1344H36.9693L36.9786 35.5364H38.3619C38.355 34.7592 38.3619 33.9831 38.3619 33.2094C38.3619 32.5462 38.4236 31.5969 38.2456 31.0081C38.0861 30.4305 37.7422 29.9209 37.2664 29.5567C36.7905 29.1925 36.2087 28.9938 35.6094 28.9908C35.0102 28.9877 34.4264 29.1806 33.9469 29.5399C33.4673 29.8992 33.1183 30.4054 32.953 30.9814C32.768 31.5864 32.8308 32.5113 32.8308 33.185C32.8308 33.9622 32.8134 34.7592 32.8308 35.534L32.8367 35.5375ZM34.2189 32.7243C34.2095 32.1425 34.1502 31.5119 34.4236 31.0733C34.5436 30.8676 34.7154 30.697 34.9219 30.5783C35.1284 30.4597 35.3623 30.3973 35.6005 30.3973C35.8386 30.3973 36.0726 30.4597 36.279 30.5783C36.4855 30.697 36.6573 30.8676 36.7773 31.0733C37.0484 31.5387 36.9832 32.1297 36.9786 32.7219L34.2189 32.7243Z" fill="#008CEB"/>
<path fill-rule="evenodd" clip-rule="evenodd" d="M40.7925 31.5515L40.7727 32.5207C40.7727 33.3351 40.7332 34.8558 40.7727 35.5178H42.127C42.1584 35.0524 42.0781 31.747 42.1631 31.6411C42.1631 30.9989 42.8344 30.4008 43.5115 30.3985C43.8635 30.3964 44.2024 30.5316 44.4562 30.7755C44.6284 30.9325 44.8925 31.2909 44.8879 31.6527C44.9507 31.6888 44.9007 35.1431 44.9205 35.5259H46.2759L46.2654 31.5759C46.2992 31.2665 46.113 30.7883 45.9932 30.5463C45.7709 30.0852 45.424 29.6955 44.9918 29.4214C44.5595 29.1473 44.0591 28.9997 43.5472 28.9953C43.0354 28.991 42.5325 29.13 42.0956 29.3967C41.6588 29.6634 41.3053 30.0471 41.0752 30.5044C40.9589 30.7429 40.7634 31.2339 40.7925 31.5515Z" fill="#008CEB"/>
<path d="M16.1315 38.5963C19.6406 38.5963 22.4852 35.7517 22.4852 32.2426C22.4852 28.7336 19.6406 25.8889 16.1315 25.8889C12.6225 25.8889 9.77783 28.7336 9.77783 32.2426C9.77783 35.7517 12.6225 38.5963 16.1315 38.5963Z" fill="#008CEB"/>
<path d="M19.8337 32.2694V34.0576C19.8337 34.174 19.7837 34.1984 19.6859 34.1414C19.5552 34.0629 19.4191 33.9937 19.2787 33.9343C18.8547 33.7654 18.3954 33.7042 17.9419 33.7563C17.447 33.8205 16.9612 33.9423 16.4945 34.1193C16.0292 34.2764 15.5731 34.4462 15.0984 34.5777C14.7052 34.6945 14.296 34.7483 13.886 34.7371C13.4317 34.7195 12.9901 34.5818 12.6062 34.338C12.558 34.309 12.5184 34.2675 12.4916 34.218C12.4648 34.1685 12.4518 34.1127 12.4538 34.0565C12.4538 32.8852 12.4538 31.714 12.4538 30.5428C12.4538 30.4858 12.4538 30.4183 12.505 30.3892C12.5562 30.3601 12.6086 30.4078 12.6528 30.4369C13.0696 30.7188 13.5633 30.865 14.0664 30.8558C14.4261 30.841 14.7819 30.7748 15.1228 30.6591C15.6068 30.5091 16.0745 30.3101 16.5504 30.1414C16.9208 29.999 17.3006 29.8824 17.6871 29.7924C18.0188 29.7147 18.363 29.7065 18.698 29.7684C19.033 29.8303 19.3515 29.9608 19.6336 30.1519C19.6982 30.1915 19.7512 30.2476 19.787 30.3145C19.8228 30.3814 19.8401 30.4565 19.8372 30.5323C19.8372 31.1141 19.8372 31.6958 19.8372 32.2775L19.8337 32.2694Z" fill="#FEFEFE"/>
</g>
</g>
<rect x="1.44444" y="1.44444" width="61.1111" height="61.1111" rx="5" stroke="black" stroke-opacity="0.1" stroke-width="1.11111"/>
<defs>
<clipPath id="clip0_110_713">
<rect x="2" y="2" width="60" height="60" rx="4.44444" fill="white"/>
</clipPath>
<clipPath id="clip1_110_713">
<rect width="44.4444" height="12.7074" fill="white" transform="translate(9.77783 25.8889)"/>
</clipPath>
</defs>
</svg>
