<svg width="64" height="64" viewBox="0 0 64 64" fill="none" xmlns="http://www.w3.org/2000/svg">
<g clip-path="url(#clip0_110_702)">
<rect x="2" y="2" width="60" height="60" rx="4.44444" fill="white"/>
<path d="M31.8007 36.5548C38.4279 36.5548 43.8003 31.1824 43.8003 24.5552C43.8003 17.928 38.4279 12.5555 31.8007 12.5555C25.1734 12.5555 19.801 17.928 19.801 24.5552C19.801 31.1824 25.1734 36.5548 31.8007 36.5548Z" fill="#00AED6"/>
<path fill-rule="evenodd" clip-rule="evenodd" d="M38.8005 24.2052C38.7005 22.7052 37.4005 21.5052 35.9005 21.6052H28.3008C28.0008 21.6052 27.8008 21.4052 27.8008 21.1053C27.8008 20.8053 28.0008 20.6053 28.3008 20.6053H36.0005C35.9505 19.6053 35.2006 18.5553 34.2506 18.4053C32.0007 18.0053 29.7007 18.0053 27.5008 18.4053C26.2508 18.6053 25.3009 19.8553 25.1009 21.0553C24.7509 23.4052 24.7509 25.8051 25.1009 28.155C25.3509 29.505 26.4508 30.605 27.8508 30.805C30.6507 31.1549 33.4506 31.1549 36.2005 30.805C37.4505 30.655 38.2505 29.505 38.5005 28.305C38.7505 26.9051 38.8505 25.5551 38.8005 24.2052ZM36.3005 25.8551V26.3051C36.3005 26.6051 36.1005 26.8051 35.8005 26.8051C35.5006 26.8051 35.3006 26.6051 35.3006 26.3051V25.8551C35.1506 25.7051 35.0506 25.5051 35.0506 25.3051C35.0506 24.9051 35.4006 24.5551 35.8005 24.5551C36.2005 24.5551 36.5505 24.9051 36.5505 25.3051C36.5505 25.5051 36.4505 25.7051 36.3005 25.8551Z" fill="white"/>
<path d="M13.7012 48.5545C14.2011 49.3044 15.0511 49.7044 15.9511 49.6544C17.0011 49.6544 17.751 49.0045 17.751 48.1045V47.6045C17.2011 48.1545 16.4011 48.4545 15.6011 48.4045C13.6512 48.4545 12.0512 46.9545 12.0012 45.0046C11.9512 43.0546 13.4512 41.4547 15.4011 41.4047C15.4511 41.4047 15.5011 41.4047 15.5511 41.4047C16.3511 41.3547 17.1511 41.6547 17.751 42.2047V41.5547H19.551V48.0545C19.551 49.9544 18.051 51.2544 15.9511 51.2544C14.5511 51.3544 13.2512 50.7544 12.3512 49.6544L13.7012 48.5545ZM17.701 44.5046C17.701 43.7546 16.8511 43.0546 15.9011 43.0546C14.7011 43.0546 13.9012 43.8046 13.9012 44.9046C13.8512 45.8546 14.5511 46.7045 15.5511 46.8045C15.6511 46.8045 15.7511 46.8045 15.8511 46.8045C16.9011 46.8045 17.751 46.1545 17.751 45.3546V44.5046H17.701Z" fill="black"/>
<path d="M24.2509 41.3547C26.4508 41.3547 28.0007 42.9046 28.0007 44.9046C28.0007 46.9045 26.4008 48.4545 24.2509 48.4545C22.3009 48.5545 20.601 47.0545 20.501 45.1046C20.401 43.1546 21.8509 41.4547 23.8009 41.3547C23.9509 41.3547 24.1009 41.3547 24.2509 41.3547ZM24.2509 43.0046C23.2009 43.0046 22.3509 43.8546 22.3509 44.9046C22.3509 45.9545 23.2009 46.8045 24.2509 46.8045C25.3008 46.8045 26.1508 45.9545 26.1508 44.9046C26.2008 43.9046 25.4008 43.0546 24.4509 43.0046C24.3509 43.0046 24.3009 43.0046 24.2509 43.0046Z" fill="black"/>
<path d="M29.0508 41.5547H30.8507V42.1547H30.9007C31.5007 41.6047 32.2507 41.3547 33.0507 41.3547C35.0006 41.4047 36.5506 43.0046 36.5006 44.9546C36.4506 46.8545 34.9506 48.3545 33.0507 48.4045C32.3007 48.4045 31.5507 48.1545 30.9507 47.7045H30.9007V51.0544H29.0508V41.5547ZM32.7007 43.0046C31.7007 43.0046 30.9007 43.7046 30.9007 44.4546V45.3046C30.9007 46.1045 31.7007 46.7545 32.7507 46.7545C33.8006 46.7545 34.6506 45.9045 34.6006 44.8546C34.6006 43.8546 33.7506 43.0046 32.7007 43.0046Z" fill="black"/>
<path d="M40.0004 44.2546C41.2004 44.1046 41.6003 43.9046 41.6003 43.5546C41.6003 43.1046 41.1504 42.8546 40.4004 42.8546C39.6504 42.8046 38.9004 43.3046 38.7504 44.0546L37.0005 43.7046C37.2505 42.3546 38.6504 41.3547 40.4004 41.3547C42.3503 41.3547 43.5503 42.3546 43.5503 43.9546V48.2045H41.8003V47.4545C41.2504 48.1045 40.4004 48.4545 39.5504 48.3545C38.1005 48.3545 37.0505 47.5545 37.0505 46.3545C37.0505 45.1546 37.8505 44.5546 40.0004 44.2546ZM41.7003 44.9546C41.5004 45.2046 41.1504 45.3546 40.2504 45.5045C39.1504 45.7045 38.7504 45.9045 38.7504 46.3045C38.7504 46.7045 39.1004 46.9045 39.8004 46.9045C40.8504 46.9045 41.7003 46.4045 41.7003 45.7545V44.9546Z" fill="black"/>
<path d="M46.8502 47.8545L43.8003 41.5547H45.8502L47.9002 45.9046H47.9502L49.9501 41.5547H52L47.4002 51.0544H45.3002L46.8502 47.8545Z" fill="black"/>
</g>
<rect x="1.44444" y="1.44444" width="61.1111" height="61.1111" rx="5" stroke="black" stroke-opacity="0.1" stroke-width="1.11111"/>
<defs>
<clipPath id="clip0_110_702">
<rect x="2" y="2" width="60" height="60" rx="4.44444" fill="white"/>
</clipPath>
</defs>
</svg>
