<svg width="64" height="64" viewBox="0 0 64 64" fill="none" xmlns="http://www.w3.org/2000/svg">
<g clip-path="url(#clip0_110_729)">
<rect x="2" y="2" width="60" height="60" rx="4.44444" fill="white"/>
<g clip-path="url(#clip1_110_729)">
<path d="M28.5952 38.9337C28.7198 38.7554 28.8497 38.5918 29.0174 38.4589C29.5626 38.0273 30.3389 38.0011 30.8618 38.404C31.1991 38.6641 31.3502 39.0269 31.4116 39.4354C31.4384 39.6164 31.4434 39.7989 31.443 39.9818C31.4422 40.7353 31.4418 41.4884 31.4441 42.2419C31.4441 42.3127 31.4312 42.3457 31.3521 42.3381C31.2741 42.3305 31.1942 42.3321 31.1158 42.3381C31.0431 42.3438 31.0193 42.3222 31.02 42.2457C31.0238 41.8171 31.0223 41.3885 31.0216 40.9599C31.0208 40.5502 31.0242 40.1405 31.0151 39.7308C31.0091 39.4672 30.9504 39.2124 30.8152 38.9811C30.5933 38.6005 30.2431 38.4555 29.8243 38.4881C29.2559 38.5324 28.8856 38.8595 28.6653 39.3714C28.6028 39.5165 28.5963 39.6721 28.596 39.8258C28.5937 40.6263 28.5929 41.4271 28.5975 42.2275C28.5979 42.3222 28.571 42.3476 28.482 42.3385C28.407 42.3309 28.3305 42.3328 28.2552 42.3385C28.1897 42.3434 28.1708 42.3162 28.1787 42.2571C28.1802 42.2446 28.1787 42.2317 28.1787 42.2192C28.1787 40.5203 28.1787 38.8213 28.1787 37.1223C28.1787 36.9864 28.1624 37.0053 28.301 37.0038C28.3703 37.003 28.4403 37.0091 28.5089 37.0023C28.5839 36.9947 28.5963 37.0254 28.596 37.0932C28.5933 37.6763 28.5945 38.2594 28.5945 38.8425C28.5945 38.8732 28.5945 38.9042 28.5945 38.9349L28.5952 38.9337Z" fill="#FFCA07"/>
<path d="M11.7127 40.234C11.2397 40.234 10.7668 40.2359 10.2939 40.2321C10.2129 40.2313 10.1943 40.2541 10.1988 40.3328C10.2182 40.6683 10.2659 40.9966 10.4238 41.2995C10.6634 41.7607 11.0527 42.003 11.5612 42.0507C12.0053 42.0927 12.4419 42.0473 12.8535 41.858C12.902 41.8356 12.9213 41.8474 12.9345 41.894C12.9478 41.9424 12.9656 41.9897 12.98 42.0378C13.0212 42.176 13.0428 42.1473 12.8989 42.2116C12.6494 42.3233 12.3836 42.3752 12.1133 42.4025C11.763 42.4381 11.4147 42.4365 11.075 42.3271C10.5548 42.1594 10.1761 41.8228 9.98037 41.3173C9.66344 40.4983 9.71305 39.6876 10.1674 38.9311C10.5915 38.2249 11.4567 37.9387 12.2303 38.212C12.6293 38.3533 12.8899 38.6403 13.0583 39.0189C13.2121 39.365 13.267 39.7296 13.2564 40.1052C13.2526 40.2336 13.2492 40.2336 13.1223 40.2336C12.6524 40.2336 12.1826 40.2336 11.713 40.2336L11.7127 40.234ZM11.5165 39.8993C11.9262 39.8993 12.3355 39.8981 12.7452 39.9004C12.8115 39.9008 12.8346 39.8856 12.8225 39.8148C12.8058 39.719 12.8073 39.6202 12.7903 39.5244C12.7365 39.2238 12.6286 38.9458 12.3908 38.7421C11.9448 38.3601 11.2155 38.3714 10.7744 38.7622C10.4631 39.0379 10.3124 39.3968 10.2325 39.7951C10.2129 39.8924 10.2431 39.9012 10.3261 39.9004C10.7229 39.897 11.1201 39.8989 11.5169 39.8989L11.5165 39.8993Z" fill="#FFCA07"/>
<path d="M23.2536 41.7561C23.0843 41.989 22.8723 42.1726 22.6061 42.2892C22.2661 42.4384 21.9136 42.4744 21.5535 42.3847C20.9931 42.2453 20.6474 41.7046 20.7269 41.1242C20.797 40.6126 21.0904 40.2805 21.5417 40.0685C21.8943 39.9027 22.271 39.8353 22.6557 39.8016C22.8253 39.7868 22.9954 39.7796 23.1654 39.783C23.2047 39.7838 23.2381 39.7876 23.2381 39.7277C23.2381 39.4869 23.2191 39.2499 23.1264 39.0242C22.9916 38.6952 22.7383 38.5187 22.3926 38.4793C21.9673 38.4309 21.5648 38.507 21.1995 38.7395C21.1586 38.7656 21.1328 38.769 21.1165 38.7168C21.1108 38.699 21.1025 38.6815 21.0949 38.6645C21.0067 38.457 21.006 38.4551 21.2138 38.354C21.6387 38.1469 22.0866 38.0715 22.5546 38.1416C23.1052 38.2241 23.4626 38.577 23.5944 39.1601C23.6349 39.3389 23.6527 39.5202 23.6531 39.7035C23.6534 40.362 23.6519 41.0204 23.6572 41.6789C23.6587 41.8705 23.6682 42.0628 23.7042 42.2521C23.717 42.321 23.6981 42.3419 23.63 42.3369C23.5546 42.3316 23.4785 42.3316 23.4031 42.3369C23.3452 42.3415 23.3263 42.3192 23.3217 42.265C23.3089 42.1147 23.2926 41.9644 23.2759 41.8144C23.2737 41.7955 23.2865 41.769 23.2532 41.7557L23.2536 41.7561ZM23.2373 40.6297C23.2373 40.4846 23.2354 40.3396 23.2384 40.195C23.2396 40.1416 23.2233 40.1226 23.1688 40.1249C23.0366 40.131 22.9045 40.1302 22.7723 40.1359C22.4501 40.1499 22.1328 40.1931 21.8299 40.3116C21.3611 40.4956 21.1332 40.8216 21.1574 41.2927C21.1733 41.605 21.2979 41.8587 21.5963 41.9996C21.8147 42.1026 22.0431 42.0939 22.2721 42.0518C22.8905 41.939 23.2839 41.3665 23.2384 40.9034C23.2294 40.8129 23.2373 40.7209 23.2373 40.6293V40.6297Z" fill="#FFCA07"/>
<path d="M17.3276 40.2904C17.331 40.7543 17.4438 41.1818 17.7532 41.5407C18.019 41.8489 18.362 42.0125 18.7638 42.053C19.1644 42.0935 19.5479 42.0239 19.9122 41.8546C19.9747 41.8254 20.0023 41.8334 20.0144 41.8993C20.0159 41.9084 20.0193 41.9175 20.0224 41.9265C20.1068 42.1677 20.1076 42.1696 19.8618 42.2541C19.3537 42.4286 18.8346 42.493 18.3117 42.3453C17.5464 42.1287 17.1155 41.5941 16.9607 40.833C16.8505 40.2927 16.8952 39.76 17.1413 39.2579C17.4616 38.6047 17.9962 38.2416 18.71 38.1394C19.1223 38.0803 19.5271 38.1257 19.9182 38.2726C20.1291 38.3518 20.1284 38.3544 20.0394 38.557C19.972 38.7111 19.9747 38.7043 19.824 38.6441C19.2071 38.3976 18.5994 38.3828 18.0288 38.7649C17.6558 39.0144 17.4658 39.3912 17.373 39.8213C17.3397 39.9758 17.3283 40.1325 17.3283 40.2904H17.3276Z" fill="#FFCA07"/>
<path d="M27.1057 41.0886C27.1122 41.7952 26.7528 42.2348 26.1693 42.3688C25.6756 42.4824 25.2008 42.418 24.7475 42.1893C24.6745 42.1526 24.6578 42.1144 24.6983 42.0439C24.7419 41.9678 24.7438 41.8467 24.8131 41.8148C24.8789 41.7846 24.9596 41.8762 25.0361 41.9099C25.3962 42.0682 25.765 42.1299 26.1485 42.0136C26.4249 41.93 26.6184 41.7546 26.6775 41.465C26.7419 41.1503 26.6574 40.8788 26.4007 40.6721C26.2318 40.5362 26.0383 40.4457 25.8384 40.3665C25.5828 40.2651 25.3394 40.1443 25.1273 39.9637C24.5946 39.51 24.7161 38.7183 25.2364 38.3567C25.587 38.1132 25.9781 38.0799 26.3856 38.1458C26.5639 38.1746 26.732 38.2344 26.8903 38.3238C26.9486 38.3567 26.9778 38.3847 26.9342 38.4529C26.9005 38.5051 26.8751 38.5646 26.8551 38.6236C26.8301 38.6975 26.8043 38.7107 26.7305 38.6664C26.4181 38.479 26.0789 38.415 25.7233 38.5002C25.4503 38.5657 25.2674 38.7406 25.208 39.0201C25.1455 39.3128 25.2356 39.5532 25.481 39.7323C25.6714 39.8709 25.8873 39.9587 26.1027 40.047C26.2867 40.1223 26.4654 40.2075 26.6279 40.3238C26.9414 40.5479 27.1103 40.8482 27.1057 41.089V41.0886Z" fill="#FFCA07"/>
<path d="M15.1091 40.1583C14.7971 40.1583 14.4851 40.1556 14.1731 40.1602C14.0966 40.1613 14.0727 40.1378 14.0799 40.0644C14.0856 40.0083 14.0863 39.9504 14.0799 39.8943C14.0704 39.8122 14.0977 39.7864 14.1829 39.7876C14.5547 39.7921 14.9266 39.7895 15.2984 39.7895C15.5472 39.7895 15.7963 39.7921 16.0451 39.788C16.117 39.7868 16.142 39.8099 16.134 39.8796C16.1242 39.9693 16.173 40.0859 16.1117 40.1427C16.0564 40.1942 15.9428 40.1567 15.8554 40.1571C15.6066 40.159 15.3575 40.1579 15.1087 40.1579L15.1091 40.1583Z" fill="#FFCA07"/>
</g>
<path fill-rule="evenodd" clip-rule="evenodd" d="M42.4994 22.4979C41.6438 23.0097 39.6258 24.2052 38.8725 24.6504C38.4134 24.8919 37.35 24.9974 36.7486 24.1598C36.7378 24.1447 35.9487 23.1262 35.9165 23.0878C35.8939 23.0607 35.3837 22.2791 34.2469 22.2547C34.0789 22.2505 33.2439 22.2459 32.4291 22.7243C31.346 23.3634 28.8272 24.8508 28.8272 24.8508C28.8265 24.8508 28.8265 24.8521 28.8252 24.8521C27.7899 25.464 26.9832 25.9405 26.9832 25.9405L27.9363 27.1496C28.3822 27.7215 29.3877 28.1639 30.2596 27.6468C30.2596 27.6468 33.4815 25.7197 33.4933 25.7141C34.8867 24.9247 35.9619 24.9247 36.6755 25.2185C37.3161 25.498 37.8733 26.1946 37.8733 26.1946C37.8733 26.1946 38.6016 27.1269 38.7301 27.2899C39.1444 27.8168 39.8303 27.6098 39.8303 27.6098C39.8303 27.6098 40.0845 27.5801 40.4676 27.3451C40.4676 27.3451 43.5884 25.476 43.5904 25.4754C44.5813 24.8749 45.4902 24.7627 45.9547 24.8069C47.4096 24.9435 47.8616 25.9933 48.4924 26.7257C48.8639 27.1565 49.1991 27.4011 49.7117 27.3888C50.0486 27.3814 50.4291 27.1704 50.4852 27.1323L54.2223 24.9047C54.2223 24.9047 53.8388 24.3081 53.0535 23.38C52.3507 22.5519 51.6042 22.9266 51.009 23.2311C50.7589 23.3588 49.8528 23.9814 48.9552 24.4157C48.3156 24.725 47.3969 24.632 46.8934 23.9893C46.8633 23.9503 46.0487 22.9316 45.9631 22.8063C45.6344 22.381 44.9929 22 44.1708 22C43.6709 22 43.1037 22.1408 42.4994 22.4979Z" fill="url(#paint0_linear_110_729)"/>
<path fill-rule="evenodd" clip-rule="evenodd" d="M9.82468 31.2073C9.82468 30.5422 9.81297 29.984 9.77783 29.4863H10.9968L11.054 30.3414H11.0882C11.3645 29.8895 11.8697 29.3552 12.8122 29.3552C13.5478 29.3552 14.1224 29.7835 14.3634 30.4244H14.387C14.5827 30.1039 14.8118 29.8667 15.0759 29.6998C15.3865 29.4746 15.7429 29.3552 16.2026 29.3552C17.1333 29.3552 18.0751 30.008 18.0751 31.8601V35.2667H16.6962V32.0741C16.6962 31.1127 16.3749 30.5422 15.6973 30.5422C15.2138 30.5422 14.8571 30.8989 14.7088 31.3146C14.6739 31.4566 14.6394 31.6348 14.6394 31.7999V35.2667H13.2601V31.9193C13.2601 31.1127 12.9503 30.5422 12.2951 30.5422C11.7664 30.5422 11.4106 30.9702 11.2839 31.3729C11.226 31.5163 11.2028 31.682 11.2028 31.8479V35.2667H9.82468V31.2073Z" fill="#003A70"/>
<path fill-rule="evenodd" clip-rule="evenodd" d="M23.4475 33.8782C23.4475 34.4003 23.4705 34.9098 23.528 35.2669H22.2519L22.1603 34.6261H22.1254C21.7809 35.0776 21.1948 35.3976 20.4709 35.3976C19.3444 35.3976 18.7126 34.5555 18.7126 33.6766C18.7126 32.216 19.9648 31.4807 22.0335 31.4925V31.3971C22.0335 31.0171 21.8839 30.3884 20.8958 30.3884C20.3439 30.3884 19.7691 30.5666 19.3901 30.8155L19.1139 29.8667C19.5284 29.605 20.253 29.3554 21.1372 29.3554C22.9307 29.3554 23.4475 30.5313 23.4475 31.789V33.8782ZM22.0679 32.4421C21.0683 32.4182 20.1147 32.6437 20.1147 33.5222C20.1147 34.0914 20.4709 34.3531 20.9192 34.3531C21.4816 34.3531 21.896 33.9731 22.022 33.5578C22.0562 33.451 22.0679 33.3318 22.0679 33.2372V32.4421Z" fill="#003A70"/>
<path fill-rule="evenodd" clip-rule="evenodd" d="M24.4246 31.2073C24.4246 30.5422 24.4119 29.984 24.3784 29.4863H25.6185L25.6878 30.3527H25.7218C25.9634 29.9022 26.5725 29.3552 27.5031 29.3552C28.4802 29.3552 29.4915 30.008 29.4915 31.8364V35.2667H28.0782V32.003C28.0782 31.1715 27.7794 30.5422 27.0093 30.5422C26.4462 30.5422 26.0556 30.9577 25.9058 31.3971C25.8606 31.528 25.8486 31.7065 25.8486 31.8715V35.2667H24.4246V31.2073Z" fill="#003A70"/>
<path fill-rule="evenodd" clip-rule="evenodd" d="M35.6198 27.1637V33.6402C35.6198 34.2336 35.6424 34.8757 35.6655 35.267H34.4013L34.3447 34.3531H34.3213C33.9878 34.9944 33.3087 35.3976 32.4937 35.3976C31.1612 35.3976 30.1036 34.2227 30.1036 32.4422C30.0919 30.5071 31.264 29.3554 32.6085 29.3554C33.3782 29.3554 33.9303 29.6882 34.1827 30.1159H34.206V27.1637H35.6198ZM34.206 31.8952C34.206 31.7778 34.1942 31.6346 34.172 31.5163C34.0454 30.9465 33.597 30.4833 32.9534 30.4833C32.0456 30.4833 31.5399 31.3147 31.5399 32.3949C31.5399 33.451 32.0456 34.2227 32.9419 34.2227C33.5163 34.2227 34.0222 33.8192 34.16 33.1903C34.1942 33.0591 34.206 32.9169 34.206 32.762V31.8952Z" fill="#003A70"/>
<path fill-rule="evenodd" clip-rule="evenodd" d="M36.6187 35.2667H38.0451V29.4866H36.6187V35.2667Z" fill="#003A70"/>
<path fill-rule="evenodd" clip-rule="evenodd" d="M39.0438 31.3497C39.0438 30.5666 39.0319 30.0079 38.9976 29.4861H40.2274L40.2724 30.5897H40.3201C40.5954 29.7707 41.2506 29.4861 41.8479 29.4861C41.9856 29.4861 42.0659 29.4618 42.1811 29.4861V30.7685C42.0659 30.7448 41.9398 30.7211 41.7674 30.7211C41.0895 30.7211 40.6294 31.1717 40.5032 31.8241C40.4808 31.9548 40.4576 32.1098 40.4576 32.2767V35.2669H39.0438V31.3497Z" fill="#003A70"/>
<path fill-rule="evenodd" clip-rule="evenodd" d="M42.8364 35.2667H44.2607V29.4866H42.8364V35.2667Z" fill="#003A70"/>
</g>
<rect x="1.44444" y="1.44444" width="61.1111" height="61.1111" rx="5" stroke="black" stroke-opacity="0.1" stroke-width="1.11111"/>
<defs>
<linearGradient id="paint0_linear_110_729" x1="26.9832" y1="27.8758" x2="54.2223" y2="27.8758" gradientUnits="userSpaceOnUse">
<stop stop-color="#FFCA06"/>
<stop offset="0.330844" stop-color="#FBAA18"/>
<stop offset="0.694742" stop-color="#FFC907"/>
<stop offset="1" stop-color="#FAA619"/>
</linearGradient>
<clipPath id="clip0_110_729">
<rect x="2" y="2" width="60" height="60" rx="4.44444" fill="white"/>
</clipPath>
<clipPath id="clip1_110_729">
<rect width="21.6667" height="5.43314" fill="white" transform="translate(9.77783 37)"/>
</clipPath>
</defs>
</svg>
