<svg width="512" height="512" viewBox="0 0 512 512" fill="none" xmlns="http://www.w3.org/2000/svg">
<path d="M502.635 457.498L403.539 358.36C477.687 259.271 457.469 118.834 358.381 44.6854C259.292 -29.4633 118.855 -9.24536 44.7063 89.8432C-29.4424 188.932 -9.22443 329.369 89.8641 403.518C169.46 463.08 278.784 463.08 358.381 403.518L457.519 502.656C469.978 515.114 490.177 515.114 502.634 502.656C515.093 490.198 515.093 469.999 502.634 457.541L502.635 457.498ZM224.949 384.383C136.883 384.383 65.4933 312.993 65.4933 224.928C65.4933 136.863 136.883 65.4724 224.949 65.4724C313.014 65.4724 384.404 136.863 384.404 224.928C384.31 312.953 312.975 384.289 224.949 384.383Z" fill="#828282"/>
</svg>
